# xmcd
#
# Track frame offsets: 
#        150
#        15467
#        39002
#        58192
#        78202
#        89947
#        104555
#        118707
#        135240
#        151292
#        164037
#        183420
#        200830
#        215797
#        228977
#
# Disc length: 3225 seconds
#
# Revision: 0
# Processed by: cddbd v1.4PL0 Copyright (c) Steve Scherf et al.
# Submitted via: ExactAudioCopy v0.90b4
#
DISCID=d00c970f
DTITLE=Billy Vera - Not Fo Sale
DYEAR=2000
DGENRE=R&B
TTITLE0=Papa Come Quick (Jody and Chico)
TTITLE1=Is That The American Dream, Johnny
TTITLE2=Desperate Frame of Mind
TTITLE3=You've Got Me
TTITLE4=Three Minute Thing
TTITLE5=Embarrassing Situation
TTITLE6=I've Never Been Loved ( Like This Before)
TTITLE7=Waiting For You
TTITLE8=Can't Help Falling In Love
TTITLE9=I'll Be There For You
TTITLE10=I'm All For You
TTITLE11=I'm Gonna Marry You
TTITLE12=Between Like and Love
TTITLE13=If I Were A Magician
TTITLE14=One More Time
EXTD=
EXTT0=
EXTT1=
EXTT2=
EXTT3=
EXTT4=
EXTT5=
EXTT6=
EXTT7=
EXTT8=
EXTT9=
EXTT10=
EXTT11=
EXTT12=
EXTT13=
EXTT14=
PLAYORDER=
